<?xml version="1.0" standalone="no"?><!DOCTYPE svg PUBLIC "-//W3C//DTD SVG 1.1//EN" "http://www.w3.org/Graphics/SVG/1.1/DTD/svg11.dtd"><svg t="1565432892318" class="icon" viewBox="0 0 1024 1024" version="1.1" xmlns="http://www.w3.org/2000/svg" p-id="2936" width="32" height="32" xmlns:xlink="http://www.w3.org/1999/xlink"><defs><style type="text/css"></style></defs><path d="M512 64c-3.2 0-7.04 0.64-10.24 0.64-1.28 0-3.2-0.64-4.48-0.64-4.48 0-8.96 0.64-13.44 1.28-111.36 7.04-211.84 54.4-286.72 128h-0.64l-0.64 1.28A446.272 446.272 0 0 0 64 512c0 238.08 185.6 432 419.84 446.72 4.48 0.64 8.96 1.28 13.44 1.28 1.92 0 3.2-0.64 4.48-0.64 3.2 0 7.04 0.64 10.24 0.64 247.68 0 448-200.32 448-448s-200.32-448-448-448z m-10.88 835.84c-3.84 0-7.68-0.64-11.52-0.64-35.84-7.04-79.36-62.08-108.16-153.6a852.032 852.032 0 0 1 232.96-3.2c-30.72 96.64-76.8 153.6-113.28 157.44zM512 676.48c-50.56 0-99.84 3.84-146.56 10.88-8.96-43.52-15.36-92.16-17.28-145.28h296.96c-1.92 51.84-7.68 99.2-16.64 141.44-37.12-4.48-76.16-7.04-116.48-7.04zM313.6 296.96c-14.08 55.68-23.04 118.4-24.96 184.96H125.44c6.4-81.92 37.76-156.8 87.04-216.32 30.08 12.8 64 23.04 101.12 31.36z m176-172.16c3.84 0 7.68-0.64 11.52-0.64 33.28 3.2 73.6 49.28 103.68 129.28a928.256 928.256 0 0 1-213.76-3.84c28.8-74.24 66.56-118.4 98.56-124.8z m121.6 12.16c58.24 15.36 110.72 43.52 154.88 81.92-30.72 10.88-64.64 19.2-101.76 25.6a421.12 421.12 0 0 0-53.12-107.52zM512 318.08c37.76 0 74.88-2.56 110.72-6.4 12.8 49.28 21.12 106.24 23.04 170.88H348.16c2.56-66.56 11.52-124.8 24.32-174.72 44.8 6.4 91.52 10.24 139.52 10.24z m-223.36 224c1.92 55.68 8.32 108.8 18.56 156.8-40.96 9.6-79.36 21.76-112 37.12a380.224 380.224 0 0 1-69.76-193.92h163.2z m416.64 0h193.28a392.256 392.256 0 0 1-69.76 193.92 600.96 600.96 0 0 0-140.16-42.88c8.96-47.36 15.36-97.92 16.64-151.04z m0-60.16c-1.92-64.64-10.24-125.44-23.68-179.2 48-8.96 92.16-21.12 129.92-36.48 49.28 59.52 80.64 134.4 86.4 216.32h-192.64z m-330.88-332.8c-16 25.6-30.72 56.32-42.88 90.24-26.24-5.76-51.2-12.16-73.6-20.48 33.92-29.44 73.6-53.12 116.48-69.76z m-139.52 634.24c26.24-10.88 55.68-19.84 87.04-26.88 14.08 46.08 32 86.4 52.48 118.4-53.12-20.48-100.48-51.84-139.52-91.52z m376.32 103.68c24.96-35.2 46.08-81.92 62.72-136.32 42.88 7.68 80.64 19.84 114.56 33.28-48 49.28-108.8 85.12-177.28 103.04z" p-id="2937" fill="#606266"></path></svg>